<svg viewBox="0 0 30 30" xmlns="http://www.w3.org/2000/svg">
    <path d="M29.7884 7.14913C31.2672 7.59822 24.5942 9.43939 22.24 9.43939C19.8851 9.43939 17.906 7.72342 17.906 6.15542C17.906 4.58639 19.4129 3.2619 21.7679 3.2619C24.1228 3.2619 25.2276 5.76428 29.7884 7.14913ZM0.211914 7.52199C-1.268 7.97073 5.40566 9.81225 7.75989 9.81225C10.1145 9.81225 12.0932 8.09559 12.0932 6.52793C12.0932 4.96028 10.5863 3.6351 8.23241 3.6351C5.87672 3.63475 4.77198 6.13714 0.211914 7.52199ZM14.9994 0C16.74 0 18.1517 1.33518 18.1517 2.98217C18.1517 4.62881 16.7404 5.96399 14.9994 5.96399C13.2584 5.96399 11.8474 4.62916 11.8474 2.98217C11.8474 1.33484 13.2588 0 14.9994 0ZM14.0988 6.86423H15.8996V30H14.0988V6.86423ZM16.7655 14.0365V12.3098L16.8538 12.2522C17.836 11.6127 18.3658 11.0146 18.3045 10.6128C18.2815 10.4562 18.0967 10.0402 16.8902 9.57322L16.7648 9.52321V7.99211L17.0353 8.08214C18.8459 8.68402 19.7979 9.45181 19.9438 10.4266C20.1731 11.9525 18.2403 13.2404 17.0674 13.8719L16.7655 14.0365ZM13.2329 28.0471L12.9675 27.9664C11.1525 27.4193 10.1998 26.6871 10.0543 25.7299C9.82718 24.2457 11.7581 22.9726 12.9296 22.3466L13.2329 22.1848V23.9025L13.1432 23.9598C12.1785 24.5796 11.636 25.1698 11.6928 25.5388C11.714 25.6799 11.8948 26.0552 13.0995 26.4801L13.2325 26.5267L13.2329 28.0471ZM16.7655 26.9933V25.266L16.8538 25.2094C17.836 24.5689 18.3658 23.9725 18.3045 23.5704C18.271 23.3448 17.8958 22.5546 14.4933 21.871C11.6881 21.3077 10.2363 20.4495 10.0536 19.251C9.82644 17.7671 11.7574 16.4951 12.9288 15.8673L13.2322 15.7048V17.4232L13.1425 17.4812C12.1778 18.101 11.6352 18.6911 11.6921 19.0602C11.7504 19.4431 12.6156 20.0149 14.8667 20.4668C18.0858 21.1142 19.7461 22.0682 19.9427 23.3814C20.1727 24.9083 18.2393 26.1959 17.0667 26.8271L16.7655 26.9933ZM16.7655 20.5134V18.7874L16.8538 18.7308C17.836 18.0896 18.3658 17.4926 18.3045 17.0911C18.271 16.8648 17.8958 16.076 14.4933 15.3934C11.6899 14.8298 10.2374 13.973 10.0536 12.7734C9.82644 11.2895 11.7574 10.0158 12.9288 9.38834L13.2322 9.22589V10.946L13.1425 11.0036C12.1778 11.6227 11.6349 12.2129 11.6921 12.5837C11.7504 12.9669 12.6156 13.537 14.8667 13.9892C18.0858 14.6366 19.7461 15.59 19.9427 16.9038C20.1727 18.4321 18.2393 19.719 17.0667 20.3502L16.7655 20.5134Z" fill="black"/>
</svg>
