<svg viewBox="0 0 194 44" xmlns="http://www.w3.org/2000/svg">
    <path
        d="M77.752 27.24C76.904 28.264 75.904 29.048 74.752 29.592C73.6 30.12 72.312 30.384 70.888 30.384C69.608 30.384 68.416 30.152 67.312 29.688C66.224 29.224 65.28 28.592 64.48 27.792C63.68 26.992 63.048 26.048 62.584 24.96C62.12 23.856 61.888 22.672 61.888 21.408C61.888 20.144 62.12 18.968 62.584 17.88C63.048 16.776 63.68 15.824 64.48 15.024C65.28 14.224 66.224 13.592 67.312 13.128C68.416 12.664 69.608 12.432 70.888 12.432C72.264 12.432 73.472 12.672 74.512 13.152C75.568 13.632 76.504 14.328 77.32 15.24L75.04 17.448C74.528 16.856 73.936 16.384 73.264 16.032C72.608 15.68 71.824 15.504 70.912 15.504C70.112 15.504 69.36 15.648 68.656 15.936C67.952 16.208 67.336 16.6 66.808 17.112C66.296 17.624 65.888 18.248 65.584 18.984C65.28 19.704 65.128 20.512 65.128 21.408C65.128 22.304 65.28 23.12 65.584 23.856C65.888 24.576 66.296 25.192 66.808 25.704C67.336 26.216 67.952 26.616 68.656 26.904C69.36 27.176 70.112 27.312 70.912 27.312C71.872 27.312 72.72 27.12 73.456 26.736C74.208 26.336 74.872 25.776 75.448 25.056L77.752 27.24ZM85.0683 17.856C85.9803 17.856 86.8123 18.016 87.5643 18.336C88.3323 18.64 88.9883 19.072 89.5323 19.632C90.0923 20.176 90.5243 20.832 90.8282 21.6C91.1483 22.368 91.3083 23.208 91.3083 24.12C91.3083 25.032 91.1483 25.872 90.8282 26.64C90.5243 27.408 90.0923 28.072 89.5323 28.632C88.9883 29.176 88.3323 29.608 87.5643 29.928C86.8123 30.232 85.9803 30.384 85.0683 30.384C84.1563 30.384 83.3163 30.232 82.5483 29.928C81.7963 29.608 81.1403 29.176 80.5803 28.632C80.0363 28.072 79.6043 27.408 79.2843 26.64C78.9803 25.872 78.8283 25.032 78.8283 24.12C78.8283 23.208 78.9803 22.368 79.2843 21.6C79.6043 20.832 80.0363 20.176 80.5803 19.632C81.1403 19.072 81.7963 18.64 82.5483 18.336C83.3163 18.016 84.1563 17.856 85.0683 17.856ZM85.0683 27.48C85.4683 27.48 85.8523 27.408 86.2203 27.264C86.6043 27.104 86.9403 26.88 87.2283 26.592C87.5163 26.304 87.7403 25.952 87.9003 25.536C88.0763 25.12 88.1643 24.648 88.1643 24.12C88.1643 23.592 88.0763 23.12 87.9003 22.704C87.7403 22.288 87.5163 21.936 87.2283 21.648C86.9403 21.36 86.6043 21.144 86.2203 21C85.8523 20.84 85.4683 20.76 85.0683 20.76C84.6523 20.76 84.2603 20.84 83.8923 21C83.5243 21.144 83.1963 21.36 82.9083 21.648C82.6203 21.936 82.3883 22.288 82.2123 22.704C82.0523 23.12 81.9723 23.592 81.9723 24.12C81.9723 24.648 82.0523 25.12 82.2123 25.536C82.3883 25.952 82.6203 26.304 82.9083 26.592C83.1963 26.88 83.5243 27.104 83.8923 27.264C84.2603 27.408 84.6523 27.48 85.0683 27.48ZM96.046 19.776H96.238C96.606 19.184 97.102 18.72 97.726 18.384C98.35 18.032 99.062 17.856 99.862 17.856C100.598 17.856 101.246 17.976 101.806 18.216C102.366 18.456 102.822 18.8 103.174 19.248C103.542 19.68 103.814 20.208 103.99 20.832C104.182 21.44 104.278 22.12 104.278 22.872V30H101.134V23.256C101.134 22.408 100.942 21.784 100.558 21.384C100.19 20.968 99.646 20.76 98.926 20.76C98.494 20.76 98.11 20.856 97.774 21.048C97.454 21.224 97.174 21.472 96.934 21.792C96.71 22.096 96.534 22.464 96.406 22.896C96.294 23.312 96.238 23.76 96.238 24.24V30H93.094V18.24H96.046V19.776ZM109.827 19.776H110.019C110.387 19.184 110.883 18.72 111.507 18.384C112.131 18.032 112.843 17.856 113.643 17.856C114.379 17.856 115.027 17.976 115.587 18.216C116.147 18.456 116.603 18.8 116.955 19.248C117.323 19.68 117.595 20.208 117.771 20.832C117.963 21.44 118.059 22.12 118.059 22.872V30H114.915V23.256C114.915 22.408 114.723 21.784 114.339 21.384C113.971 20.968 113.427 20.76 112.707 20.76C112.275 20.76 111.891 20.856 111.555 21.048C111.235 21.224 110.955 21.472 110.715 21.792C110.491 22.096 110.315 22.464 110.187 22.896C110.075 23.312 110.019 23.76 110.019 24.24V30H106.875V18.24H109.827V19.776ZM131.793 27.168C131.249 28.128 130.513 28.904 129.585 29.496C128.673 30.088 127.553 30.384 126.225 30.384C125.329 30.384 124.497 30.232 123.729 29.928C122.977 29.608 122.321 29.168 121.761 28.608C121.201 28.048 120.761 27.392 120.441 26.64C120.137 25.872 119.985 25.032 119.985 24.12C119.985 23.272 120.137 22.472 120.441 21.72C120.745 20.952 121.169 20.288 121.713 19.728C122.257 19.152 122.897 18.696 123.633 18.36C124.385 18.024 125.209 17.856 126.105 17.856C127.049 17.856 127.889 18.016 128.625 18.336C129.361 18.64 129.977 19.072 130.473 19.632C130.969 20.176 131.345 20.824 131.601 21.576C131.857 22.328 131.984 23.144 131.984 24.024C131.984 24.136 131.984 24.232 131.984 24.312C131.969 24.408 131.961 24.496 131.961 24.576C131.945 24.656 131.937 24.744 131.937 24.84H123.081C123.145 25.32 123.273 25.736 123.465 26.088C123.673 26.424 123.921 26.712 124.209 26.952C124.513 27.176 124.841 27.344 125.193 27.456C125.545 27.552 125.905 27.6 126.273 27.6C126.993 27.6 127.585 27.44 128.049 27.12C128.529 26.784 128.905 26.368 129.177 25.872L131.793 27.168ZM128.937 22.608C128.921 22.4 128.849 22.168 128.721 21.912C128.609 21.656 128.433 21.416 128.193 21.192C127.969 20.968 127.681 20.784 127.329 20.64C126.993 20.496 126.585 20.424 126.105 20.424C125.433 20.424 124.841 20.616 124.329 21C123.817 21.384 123.457 21.92 123.249 22.608H128.937ZM145.27 27C144.758 27.992 144.038 28.808 143.11 29.448C142.198 30.072 141.054 30.384 139.678 30.384C138.766 30.384 137.926 30.232 137.158 29.928C136.406 29.608 135.75 29.168 135.19 28.608C134.646 28.048 134.214 27.392 133.894 26.64C133.59 25.872 133.438 25.032 133.438 24.12C133.438 23.208 133.59 22.368 133.894 21.6C134.214 20.832 134.646 20.176 135.19 19.632C135.75 19.072 136.406 18.64 137.158 18.336C137.926 18.016 138.766 17.856 139.678 17.856C141.038 17.856 142.182 18.168 143.11 18.792C144.038 19.416 144.718 20.224 145.15 21.216L142.27 22.416C141.998 21.872 141.646 21.464 141.214 21.192C140.798 20.904 140.27 20.76 139.63 20.76C139.214 20.76 138.822 20.84 138.454 21C138.086 21.16 137.758 21.384 137.47 21.672C137.198 21.96 136.982 22.312 136.822 22.728C136.662 23.144 136.582 23.608 136.582 24.12C136.582 24.632 136.662 25.096 136.822 25.512C136.982 25.928 137.198 26.28 137.47 26.568C137.758 26.856 138.086 27.08 138.454 27.24C138.822 27.4 139.214 27.48 139.63 27.48C140.286 27.48 140.838 27.336 141.286 27.048C141.75 26.744 142.118 26.312 142.39 25.752L145.27 27ZM148.367 20.928H146.303V18.24H148.367V14.64H151.511V18.24H154.391V20.928H151.511V25.488C151.511 25.76 151.535 26.016 151.583 26.256C151.647 26.48 151.759 26.672 151.919 26.832C152.143 27.088 152.463 27.216 152.879 27.216C153.151 27.216 153.367 27.192 153.527 27.144C153.687 27.08 153.839 27 153.983 26.904L154.871 29.664C154.503 29.84 154.103 29.968 153.671 30.048C153.255 30.144 152.791 30.192 152.279 30.192C151.687 30.192 151.151 30.104 150.671 29.928C150.207 29.736 149.815 29.48 149.495 29.16C148.743 28.44 148.367 27.416 148.367 26.088V20.928ZM157.087 12.816H160.279L165.535 21.912H165.727L170.983 12.816H174.199V30H170.983V21.528L171.175 18.648H170.983L166.615 26.352H164.671L160.279 18.648H160.087L160.279 21.528V30H157.087V12.816ZM177.666 12.816H183.474C184.834 12.816 186.058 13.024 187.146 13.44C188.234 13.856 189.162 14.448 189.93 15.216C190.698 15.968 191.282 16.872 191.682 17.928C192.098 18.984 192.306 20.144 192.306 21.408C192.306 22.688 192.098 23.856 191.682 24.912C191.282 25.968 190.698 26.872 189.93 27.624C189.162 28.376 188.234 28.96 187.146 29.376C186.058 29.792 184.834 30 183.474 30H177.666V12.816ZM183.33 26.928C184.274 26.928 185.106 26.8 185.826 26.544C186.546 26.272 187.146 25.896 187.626 25.416C188.106 24.936 188.466 24.36 188.706 23.688C188.946 23 189.066 22.24 189.066 21.408C189.066 20.576 188.946 19.824 188.706 19.152C188.466 18.464 188.106 17.88 187.626 17.4C187.146 16.92 186.546 16.552 185.826 16.296C185.106 16.024 184.274 15.888 183.33 15.888H180.906V26.928H183.33Z"
        fill="black" />
    <path
        d="M41.7037 10.4854C43.774 11.1441 34.4319 13.8444 31.136 13.8444C27.8391 13.8444 25.0684 11.3277 25.0684 9.02795C25.0684 6.7267 27.1781 4.78412 30.475 4.78412C33.7719 4.78412 35.3186 8.45428 41.7037 10.4854ZM0.29668 11.0323C-1.7752 11.6904 7.56792 14.3913 10.8638 14.3913C14.1603 14.3913 16.9304 11.8735 16.9304 9.5743C16.9304 7.27507 14.8208 5.33148 11.5254 5.33148C8.22741 5.33097 6.68077 9.00114 0.29668 11.0323ZM20.9992 0C23.436 0 25.4124 1.95826 25.4124 4.37385C25.4124 6.78892 23.4365 8.74719 20.9992 8.74719C18.5618 8.74719 16.5864 6.78943 16.5864 4.37385C16.5864 1.95776 18.5623 0 20.9992 0ZM19.7384 10.0675H22.2594V44H19.7384V10.0675ZM23.4717 20.5868V18.0544L23.5953 17.9699C24.9704 17.032 25.7121 16.1548 25.6263 15.5654C25.5942 15.3358 25.3354 14.7257 23.6463 14.0407L23.4707 13.9674V11.7218L23.8495 11.8538C26.3843 12.7366 27.7171 13.8627 27.9213 15.2923C28.2423 17.5303 25.5365 19.4192 23.8944 20.3455L23.4717 20.5868ZM18.5261 41.1357L18.1545 41.0173C15.6135 40.215 14.2797 39.141 14.076 37.7372C13.758 35.5604 16.4613 33.6932 18.1014 32.775L18.5261 32.5378V35.057L18.4005 35.141C17.0499 36.0501 16.2903 36.9156 16.37 37.4569C16.3996 37.6638 16.6528 38.2142 18.3393 38.8375L18.5256 38.9058L18.5261 41.1357ZM23.4717 39.5902V37.0568L23.5953 36.9738C24.9704 36.0344 25.7121 35.1597 25.6263 34.5699C25.5794 34.239 25.0541 33.0801 20.2907 32.0774C16.3633 31.2513 14.3308 29.9927 14.075 28.2347C13.757 26.0584 16.4603 24.1927 18.1004 23.272L18.5251 23.0338V25.5541L18.3995 25.6391C17.0489 26.5481 16.2893 27.4137 16.369 27.955C16.4506 28.5165 17.6619 29.3553 20.8134 30.018C25.3201 30.9675 27.6446 32.3668 27.9197 34.2927C28.2418 36.5322 25.535 38.4206 23.8934 39.3464L23.4717 39.5902ZM23.4717 30.0863V27.5548L23.5953 27.4719C24.9704 26.5314 25.7121 25.6557 25.6263 25.0669C25.5794 24.735 25.0541 23.5781 20.2907 22.577C16.3659 21.7503 14.3323 20.4937 14.075 18.7343C13.757 16.558 16.4603 14.6898 18.1004 13.7696L18.5251 13.5313V16.0541L18.3995 16.1386C17.0489 17.0467 16.2888 17.9122 16.369 18.4561C16.4506 19.0181 17.6619 19.8543 20.8134 20.5175C25.3201 21.4671 27.6446 22.8653 27.9197 24.7922C28.2418 27.0338 25.535 28.9212 23.8934 29.847L23.4717 30.0863Z"
        fill="black" />
</svg>